<svg xmlns="http://www.w3.org/2000/svg" width="1771" height="2008.508" viewBox="-2736 334.894 1771 2008.508"><switch><g><linearGradient id="a16" gradientUnits="userSpaceOnUse" x1="-1071.204" y1="258.356" x2="-2722.919" y2="2141.107"><stop offset="0" stop-color="#f18629"></stop><stop offset="1" stop-color="#e44d26"></stop></linearGradient><path fill="url(#a16)" d="M-2574.831 2142.622L-2736 334.894h1771l-161.347 1807.442-725.24 201.065-723.244-200.779z"></path><path fill="#FFF" d="M-1850.5 704.421h-555.949l5.314 59.481 54.49 610.971h768.396l-25.74 287.547-247.275 66.734v.023l-.21.057-246.917-66.678-15.786-176.818h-222.559l31.064 348.118 454.158 126.076 1.014-.286v-.042l453.754-125.748 3.325-37.468 52.108-583.682 5.409-59.537h-59.738l-454.858-.001h-293.374l-20.266-227.034h848.414l4.439-49.837 10.103-112.395 5.305-59.481z"></path></g></switch></svg>