<svg xmlns="http://www.w3.org/2000/svg" width="612" height="792" viewBox="0 0 612 792"><path fill="#C9C7C7" d="M49.972 728.938c-1.644-1.474-.976-3.435-.976-5.182-.026-220.284 0-440.568-.085-660.852-.004-9.365 5.361-15.731 11.374-21.252C73.559 29.46 90.58 25.023 107.579 21.043c18.661-4.37 37.655-6.973 56.589-9.805 10.286-1.539 20.695-2.273 31.063-3.224 62.607-5.744 125.368-2.258 188.055-2.767 16.29-.133 32.666 1.729 48.973 3.471 17.92 1.915 35.712 4.495 53.504 7.243 22.671 3.503 45.273 7.672 65.456 19.032 11.89 6.692 21.018 16.482 19.595 32.006-2.52.172-2.801-1.863-3.237-3.504-.957-3.603-2.877-6.483-5.881-8.673-10.929-15.703-27.836-21.103-45.026-25.515-20.996-5.39-42.524-8.03-63.998-10.72-27.575-3.454-55.269-5.214-83.054-6.331-36.458-1.466-72.91-.966-109.344-.537-23.896.281-47.821 1.939-71.658 4.49-27.331 2.924-54.568 6.336-81.43 12.222-11.061 2.424-21.933 5.661-31.87 11.371-7.67 4.407-14.094 10.017-17.748 18.322a8.419 8.419 0 0 1-2.046 2.817c-2.418 2.228-2.688 5.253-2.986 8.225-.167 1.651-.042 3.329-.042 4.995-.006 214.41.001 428.819-.009 643.229 0 2.166.167 4.334.017 6.494-.144 2-.321 4.054-2.53 5.054z"/><path fill="#BAB7B7" d="M563.019 55.018c3.994 1.081 4.538 4.739 5.674 7.844.548 1.5.333 3.297 2.121 4.137.03 2.665.091 5.331.091 7.996.004 215.462-.019 430.926.095 646.388.005 7.604-2.263 13.935-6.997 19.616-1.476.843-1.643 4.304-4.558 2.274-.24-1.245.265-2.307.943-3.254 3.999-5.585 4.837-11.845 4.014-18.48-.151-52.36-.042-104.711-.071-157.063-.003-5.151.006-10.303-.282-15.449.276-3.991.271-7.989.271-11.987-.003-153.252-.007-306.505.011-459.756.001-6.006.039-11.993-1.466-17.874-.371-1.443-.612-2.954.154-4.392z"/><path fill="#B4B1B1" d="M49.972 728.938c1.147-1.793 1.031-3.801 1.03-5.806-.008-126.814-.01-253.629-.009-380.443 0-90.625-.024-181.251.104-271.875.005-3.81-.795-8.455 3.915-10.804.724.813.817 1.786.732 2.807-.509 2.471-.327 4.978-.327 7.47-.009 157.025-.008 314.051-.004 471.075 0 2.163-.095 4.331.211 6.483.167.639.235 1.288.239 1.945-.226 3.488-.285 6.98-.285 10.479.01 48.945.033 97.892-.024 146.837-.008 7.011.146 13.978 1.652 20.841-.345 8.534 4.529 14.235 10.745 18.976 5.795 4.42 12.364 7.569 19.028 10.5 1.691.743 4.057.862 4.16 3.539-1.137 1.048-2.499.945-3.748.465-10.22-3.928-20.64-7.516-28.113-16.23-.873-1.018-1.438-2.229-2.349-3.196-2.84-4.079-6.33-7.809-6.957-13.063z"/><path fill="#DFDDDD" d="M56.93 741.998c7.629 8.132 17.137 13.249 27.436 17.103 2.15.807 4.214 1.931 6.615 1.82 1.623-.865 3.257-.431 4.858.021 26.715 7.51 54.148 11 81.579 14.431 38.565 4.822 77.327 5.45 116.133 5.035 15.652-.167 31.311-.063 46.964-.023 22.122.389 44.197-.129 66.302-1.643 32.034-2.194 63.776-6.353 95.295-12.253 15.862-2.972 31.509-6.844 45.945-14.598 4.272-2.296 7.298-6.326 11.984-7.877 1.318-1.005 2.64-2.01 3.96-3.015-1.673 5.661-6.107 9.089-10.61 12.102-13.486 9.025-28.86 13.365-44.491 16.727-20.691 4.45-41.662 7.366-62.654 9.878-12.466 1.491-25.018 2.47-37.564 3.396-18.024 1.331-36.142 1.061-54.079 3.047-7.07.782-13.853-.194-20.767-.214-23.237-.063-46.483.354-69.709-.156-20.374-.449-40.774-1.336-61.077-3.048-28.98-2.445-57.822-6.28-86.397-11.83-17.662-3.432-35.043-7.877-50.297-17.94-4.011-2.648-8.412-5.495-9.426-10.963z"/><path fill="#030204" d="M55.046 549.13c72.459.019 144.917.044 217.376.051 95.445.01 190.891.003 286.336-.002 1.998 0 3.996-.059 5.992-.09 1.866 1.781 1.057 4.081 1.059 6.146.052 55.853.05 111.706.057 167.56-.452 5.127-1.689 9.986-4.785 14.23-11.787 13.586-27.905 18.991-44.556 22.864-29.724 6.914-59.936 10.82-90.31 13.603a988.73 988.73 0 0 1-82.722 4.079c-10.963.083-21.896 1.021-32.87-.146-5.479-.582-10.897 1.323-16.424.948-24.732-1.681-49.533-1.028-74.292-2.778-35.422-2.502-70.6-6.494-105.45-13.248-14.091-2.729-27.969-6.279-40.621-13.433-7.945-4.492-15.421-9.436-17.729-19.153-1.431-4.984-1.86-10.062-1.854-15.252.06-53.016.031-106.031.055-159.047.001-2.124-.486-4.338.738-6.332z"/><path fill="#9F9C9B" d="M560.746 735.558c2.454-3.955 3.711-8.39 5.119-12.764 1.605 8.047-2.463 14.535-5.824 21.22-8.53 10.015-20.521 14.026-32.381 17.622-23.015 6.979-46.813 10.223-70.61 13.356-16.906 2.227-33.854 3.785-50.855 5.108-21.739 1.692-43.463 2.087-65.229 1.769.601-2.78 2.957-2.216 4.771-2.339 15.754-1.066 31.561-1.06 47.313-2.118 40.193-2.701 80.213-6.913 119.63-15.533 14.194-3.104 27.923-7.65 39.783-16.577 3.524-2.656 6.313-5.823 8.283-9.744z"/><path fill="#8B8888" d="M560.746 735.558c-1.586 8.608-8.627 12.222-15.177 15.951-13.896 7.914-29.285 11.484-44.835 14.365-21.146 3.916-42.395 7.081-63.813 9.135-11.866 1.138-23.717 2.271-35.62 3.058-14.081.93-28.164 1.435-42.242 2.146-5.965.302-12.233-.522-18.095 1.657-34.301-.036-68.619.587-102.896-.342-22.292-.604-44.584-2.553-66.769-5.526-23.94-3.21-47.819-6.602-71.324-12.253-3.048-.733-5.998-1.875-8.994-2.827-7.9-4.338-16.612-7.227-23.744-12.929-5.874-4.695-11.205-9.848-11.129-18.231 8.852 16.522 24.911 22.309 41.329 26.967 24.547 6.967 49.847 10.178 75.111 13.178 35.713 4.241 71.585 5.894 107.557 6.342 37.245.465 74.476.496 111.66-1.563 41.385-2.293 82.528-6.852 123.071-15.852 8.124-1.804 16.038-4.296 23.695-7.624 8.505-3.698 16.176-8.496 22.215-15.652z"/><path fill="#C9C7C7" d="M54.864 61.981c.024 4.497.069 8.993.07 13.489.003 155.259.002 310.518.012 465.776 0 2.494.137 4.988.209 7.481-1.957-1.084-1.142-2.965-1.143-4.485-.044-159.172-.048-318.345-.033-477.517 0-1.61-.484-3.366.885-4.744z"/><path fill-rule="evenodd" clip-rule="evenodd" fill="#FCFCFC" d="M302.959 376.13c6.472.1 9.418 2.468 9.407 7.557-.012 5.326-3.217 8.068-10.422 7.419-7.994-.721-2.657-7.093-3.505-10.683-.987-4.177-.187-4.366 4.52-4.293z"/><path d="M83.606 686.372H96.45l6.586-80.358H89.863v-11.196h28.983l26.345 62.902c1.647 4.281 2.306 7.574 2.306 7.574h.33s.659-3.293 2.304-7.574l26.348-62.902h28.981v11.196h-13.173l6.588 80.358h12.844v11.526h-39.521v-11.526h12.186l-4.611-61.585c0-3.293.33-8.563.33-8.563h-.33s-1.316 4.941-2.305 7.903l-23.384 54.342h-12.515l-23.382-54.342c-1.318-2.962-2.307-7.903-2.307-7.903h-.329s.659 5.271.329 8.563l-4.61 61.585h12.187v11.526H83.936v-11.526h-.33zm189.039-93.532c29.64 0 52.693 23.055 52.693 52.694 0 30.3-23.054 54.011-52.693 54.011-29.641 0-52.693-23.711-52.693-54.011 0-29.639 23.052-52.694 52.693-52.694zm0 93.861c20.748 0 37.543-17.784 37.543-41.167 0-22.395-16.795-39.851-37.543-39.851-20.749 0-37.874 17.127-37.874 39.851 0 23.053 17.125 41.167 37.874 41.167zm62.573-.329h12.844v-80.358h-12.844v-11.196h43.802c8.563 0 14.82.33 21.736 2.634 19.43 6.259 32.274 24.043 32.274 49.071 0 25.03-12.185 42.485-32.274 48.741-6.588 2.307-13.503 2.635-21.736 2.635h-43.802v-11.527zm43.144-.659c6.588 0 12.185-.659 17.454-2.635 13.833-4.939 22.396-18.114 22.396-36.885 0-19.104-8.563-32.275-22.065-37.217-5.6-1.975-10.87-2.304-17.455-2.304h-15.808v79.04h15.478zm59.939.659h9.551l26.346-40.838-26.017-39.851h-9.551v-11.195h32.274v11.195h-7.574l17.125 27.007c1.648 2.305 2.635 3.951 2.635 3.951h.329s.988-1.977 2.306-3.951l16.467-27.007h-7.244v-11.195h31.285v11.195h-9.551l-26.676 41.169 26.019 39.52h9.878v11.526H493.63v-11.526h7.574l-17.126-27.004c-1.646-2.308-2.634-4.283-2.634-4.283h-.33s-.988 1.976-2.306 4.283l-16.466 27.004h7.574v11.526h-31.615v-11.526z" fill="#FFF"/><linearGradient id="a" gradientUnits="userSpaceOnUse" x1="264.104" y1="-271.185" x2="236.639" y2="-289.069" gradientTransform="translate(-811.148 1517.641) scale(4.8024)"><stop offset="0" stop-color="#80c3e6"/><stop offset="1" stop-color="#3380c2"/></linearGradient><path fill="url(#a)" d="M413.729 267.523l73.566-118.059H309.91l-24.917 39.159z"/><path opacity=".15" d="M284.993 188.623l13.054-20.173 115.682 99.073z"/><linearGradient id="b" gradientUnits="userSpaceOnUse" x1="268.933" y1="-229.885" x2="248.4" y2="-243.445" gradientTransform="translate(-811.148 1517.641) scale(4.8024)"><stop offset="0" stop-color="#f38649"/><stop offset=".185" stop-color="#f28147"/><stop offset=".409" stop-color="#ef7242"/><stop offset=".654" stop-color="#ea5a3a"/><stop offset=".911" stop-color="#e4382e"/><stop offset="1" stop-color="#e12a29"/></linearGradient><path fill="url(#b)" d="M452.291 481.689V304.305l-37.968-24.321-80.682 127.549z"/><path opacity=".15" d="M333.641 407.533l20.17 12.457 60.512-140.006z"/><linearGradient id="c" gradientUnits="userSpaceOnUse" x1="201.275" y1="-258.898" x2="240.557" y2="-283.444" gradientTransform="translate(-811.148 1517.641) scale(4.8024)"><stop offset="0" stop-color="#42ab4a"/><stop offset="1" stop-color="#add155"/></linearGradient><path fill="url(#c)" d="M165.75 113.28v177.974l42.119 24.324 205.86-48.055z"/><linearGradient id="d" gradientUnits="userSpaceOnUse" x1="209.885" y1="-215.011" x2="241.795" y2="-266.079" gradientTransform="translate(-811.148 1517.641) scale(4.8024)"><stop offset="0" stop-color="#42ab4a"/><stop offset="1" stop-color="#add155"/></linearGradient><path fill="url(#d)" d="M206.686 329.222l-74.159 115.686h177.977l103.819-164.924z"/></svg>